<?xml version="1.0" standalone="no"?>
<!DOCTYPE svg PUBLIC "-//W3C//DTD SVG 20010904//EN"
 "http://www.w3.org/TR/2001/REC-SVG-20010904/DTD/svg10.dtd">
<svg version="1.0" xmlns="http://www.w3.org/2000/svg"
 width="543.000000pt" height="450.000000pt" viewBox="0 0 543.000000 450.000000"
 preserveAspectRatio="xMidYMid meet">

<g transform="translate(0.000000,450.000000) scale(0.100000,-0.100000)"
fill="#000000" stroke="none">
<path d="M2570 4490 c-284 -22 -534 -93 -815 -230 -241 -117 -401 -235 -610
-451 -180 -185 -280 -322 -384 -524 -371 -722 -322 -1581 129 -2263 290 -438
745 -771 1248 -912 713 -201 1472 -41 2032 428 438 366 709 848 796 1412 25
158 25 463 1 620 -113 733 -560 1357 -1206 1684 -384 194 -763 269 -1191 236z
m490 -225 c416 -62 785 -246 1094 -545 305 -296 499 -646 580 -1050 115 -570
-19 -1166 -364 -1625 -688 -913 -2002 -1079 -2889 -364 -521 419 -805 1077
-751 1739 41 507 247 943 616 1301 329 319 743 511 1204 558 124 13 378 6 510
-14z"/>
<path d="M3006 3993 c-3 -21 -15 -114 -26 -208 -11 -93 -22 -189 -25 -213 l-5
-43 37 7 c32 6 39 4 58 -21 22 -26 23 -26 51 -12 28 15 30 14 59 -14 l31 -29
82 203 c97 240 114 287 103 287 -5 0 -37 -9 -72 -19 -126 -37 -131 -36 -214
48 -27 28 -55 51 -61 51 -7 0 -15 -17 -18 -37z"/>
<path d="M2547 3953 c-29 -132 -88 -435 -85 -438 10 -10 178 -8 190 2 7 7 37
15 67 19 29 4 55 12 57 19 7 18 -192 465 -207 465 -4 0 -14 -30 -22 -67z"/>
<path d="M2033 3883 c-32 -33 -35 -41 -30 -82 6 -52 47 -98 98 -108 17 -3 33
-13 36 -21 4 -8 1 -77 -6 -154 -7 -77 -10 -142 -7 -145 2 -3 25 3 51 12 53 21
90 60 106 114 26 86 -18 159 -121 205 l-60 27 6 95 c7 93 7 94 -16 94 -13 0
-37 -15 -57 -37z"/>
<path d="M3593 3668 c-134 -188 -196 -286 -190 -302 5 -13 148 -116 162 -116
3 0 5 54 5 119 0 132 -1 131 71 131 44 0 46 5 23 54 -9 19 -14 41 -11 48 3 8
44 25 91 37 47 13 88 26 91 31 5 8 -136 110 -153 110 -5 0 -45 -51 -89 -112z"/>
<path d="M1648 3580 l-3 -65 -94 -17 c-51 -9 -96 -20 -99 -22 -8 -8 54 -79
202 -231 l136 -140 -2 60 -2 60 87 20 c47 11 91 25 97 31 14 14 -10 45 -177
219 l-142 149 -3 -64z"/>
<path d="M4069 3423 c-88 -60 -369 -275 -369 -282 0 -4 22 -6 49 -3 43 4 50 2
61 -18 7 -12 15 -58 17 -102 3 -43 10 -81 14 -84 5 -2 28 7 51 22 75 47 338
245 338 255 0 5 -17 9 -38 9 -61 0 -70 13 -81 119 -6 51 -12 95 -14 97 -2 2
-14 -4 -28 -13z"/>
<path d="M1207 3129 c-46 -100 -50 -114 -35 -126 22 -18 415 -223 427 -223 12
0 105 179 98 187 -3 2 -56 -3 -118 -12 -108 -16 -114 -16 -126 1 -7 10 -13 35
-13 56 0 21 -5 38 -11 38 -6 0 -31 -12 -55 -26 -25 -15 -46 -25 -48 -23 -2 2
-18 45 -36 94 -18 50 -36 94 -41 99 -5 6 -23 -22 -42 -65z"/>
<path d="M4357 2909 c-51 -27 -57 -46 -22 -74 l29 -22 -25 -16 c-13 -8 -94
-52 -179 -96 -85 -44 -146 -81 -135 -80 11 0 101 6 200 13 99 7 182 12 184 10
3 -3 -3 -20 -12 -39 -9 -20 -17 -38 -17 -40 0 -3 29 -5 65 -5 42 0 65 4 65 11
0 7 -21 82 -46 168 -25 86 -49 164 -51 174 -7 21 -9 21 -56 -4z"/>
<path d="M1109 2650 c-54 -36 -90 -88 -92 -132 l-2 -33 200 -36 c110 -20 218
-40 239 -43 l39 -7 -50 45 c-31 28 -61 68 -78 103 -34 73 -50 91 -100 114 -59
27 -104 24 -156 -11z"/>
<path d="M3725 2510 c-10 -11 -13 -20 -8 -20 13 0 38 29 31 35 -3 3 -13 -4
-23 -15z"/>
<path d="M2210 2451 c-19 -11 -44 -29 -55 -42 l-20 -23 30 19 c77 49 97 56
122 40 13 -9 23 -11 23 -6 0 12 -33 31 -52 31 -7 -1 -29 -9 -48 -19z"/>
<path d="M3588 2434 c-38 -20 -36 -28 2 -9 17 9 30 18 30 20 0 7 -1 6 -32 -11z"/>
<path d="M2276 2366 c-23 -49 -19 -59 5 -13 11 22 18 41 16 43 -2 3 -12 -11
-21 -30z"/>
<path d="M2700 2381 c-19 -4 -44 -13 -55 -20 l-20 -13 20 8 c11 3 55 9 98 12
49 3 74 8 65 13 -15 10 -57 10 -108 0z"/>
<path d="M3409 2365 c-85 -30 -255 -65 -311 -65 -24 1 -72 7 -108 15 -36 7
-67 12 -69 9 -4 -4 8 -9 64 -23 49 -13 207 -14 255 -2 88 23 179 51 220 70 61
27 30 24 -51 -4z"/>
<path d="M2565 2328 c-35 -20 -155 -101 -155 -105 0 -6 32 12 118 67 42 28 73
50 67 50 -5 0 -19 -6 -30 -12z"/>
<path d="M2005 2320 c-3 -5 -1 -10 4 -10 6 0 11 5 11 10 0 6 -2 10 -4 10 -3 0
-8 -4 -11 -10z"/>
<path d="M4169 2290 c-61 -10 -99 -31 -138 -75 -64 -74 -26 -162 97 -222 49
-24 69 -28 142 -28 109 0 164 17 212 65 43 43 49 79 21 137 -40 86 -200 144
-334 123z"/>
<path d="M2252 2270 c0 -14 2 -19 5 -12 2 6 2 18 0 25 -3 6 -5 1 -5 -13z"/>
<path d="M2325 2210 c-18 -8 -18 -9 5 -9 14 0 32 4 40 9 12 8 12 10 -5 9 -11
0 -29 -4 -40 -9z"/>
<path d="M1720 2170 c-18 -12 -2 -12 25 0 13 6 15 9 5 9 -8 0 -22 -4 -30 -9z"/>
<path d="M1488 1818 c-75 -114 -75 -114 -131 -78 -51 32 -50 34 -62 -47 -4
-24 -10 -43 -13 -43 -4 0 -47 13 -97 29 -49 16 -91 26 -93 21 -2 -5 12 -46 30
-92 28 -69 37 -82 53 -80 26 5 354 136 406 163 46 23 46 25 8 131 -33 91 -39
90 -101 -4z"/>
<path d="M3752 1430 c39 -68 262 -383 274 -387 6 -2 42 38 81 89 111 149 114
154 100 166 -15 12 -455 172 -474 172 -2 0 7 -18 19 -40z"/>
<path d="M1765 1401 c-28 -26 -292 -171 -312 -171 -20 0 -23 5 -23 35 0 19 -3
35 -7 35 -19 -1 -88 -47 -91 -61 -2 -12 230 -289 243 -289 8 0 73 109 68 114
-4 3 -16 6 -28 6 -13 0 -28 6 -34 13 -11 14 31 82 132 215 60 78 81 112 70
112 -5 0 -13 -4 -18 -9z"/>
<path d="M3520 1279 c-24 -16 -54 -29 -66 -29 -13 0 -25 -8 -28 -18 -3 -10
-28 -35 -56 -55 -27 -21 -50 -42 -50 -47 0 -12 386 -320 402 -320 4 0 -99 394
-122 464 -6 20 -17 36 -23 35 -7 0 -32 -14 -57 -30z"/>
<path d="M1960 1010 c-119 -238 -122 -253 -52 -210 18 11 38 18 43 14 6 -3 35
-44 66 -91 31 -46 59 -81 63 -76 4 4 58 106 120 225 l112 218 -47 -20 c-73
-31 -78 -29 -131 60 -26 44 -54 80 -61 80 -7 0 -58 -90 -113 -200z"/>
<path d="M2996 1029 c-20 -17 -40 -47 -46 -67 -14 -52 -13 -112 3 -112 6 0 55
11 107 25 52 14 105 25 118 25 27 0 30 11 -39 -180 -27 -74 -49 -142 -49 -151
0 -23 21 -29 66 -19 81 18 120 101 111 230 -9 126 -54 218 -126 258 -56 32
-103 29 -145 -9z"/>
<path d="M2529 1043 l-75 -4 32 -162 c34 -170 62 -298 71 -331 5 -16 11 -10
31 30 67 131 175 382 176 409 1 29 -1 30 -49 35 -27 3 -60 11 -72 18 -12 7
-25 11 -30 10 -4 -1 -42 -4 -84 -5z"/>
</g>
</svg>
